# xmcd
#
# Track frame offsets:
#	150
#	736
#	22364
#	39488
#	58491
#	79344
#	80166
#	100908
#	123371
#	144040
#	144384
#	163065
#	182993
#	203113
#	222921
#	241745
#	264040
#	285346
#	305996
#	320191
#
# Disc length: 4539 seconds
#
# Revision: 1
# Processed by: cddbd v1.5.2PL0 Copyright (c) Steve Scherf et al.
# Submitted via: audiograbber 1.83.01
#
DISCID=2911b914
DTITLE=Various Artist - PO Tropical Latin Sep 2000
DYEAR=2000
DGENRE=Latin
TTITLE0=Son By Four - Artist Drop
TTITLE1=Son By Four - Lo Que YHo Mas Quiero
TTITLE2=Anthony - Yo Te Confiezo
TTITLE3=Jerry Rivera - Amor De Novela
TTITLE4=Darlyn Y Los Herederos - Olvidala
TTITLE5=Tito Rojas - Artist Drop
TTITLE6=Tito Rojas - Que Mas Tu Quieres De Mi
TTITLE7=Eddy Herrera - Pegame Tu Vicio
TTITLE8=Gilberto Santa Rosa - Almas Gemelas
TTITLE9=Limi-T 21 - Artist Drop
TTITLE10=Limi-T 21 - Y Dale
TTITLE11=Brenda K Starr - La Razon
TTITLE12=Blanco Y Negro - Pido Y Rezo
TTITLE13=Tony Vega - Contigo
TTITLE14=Milly Quezada - Un Nuevo Amor
TTITLE15=Victor Manuelle - Como Duele
TTITLE16=Fulanito - Quien Es Fulanito (DJ Duron Mix)
TTITLE17=Carlos Vives - 19 De Noviembre
TTITLE18=Christina Aguilera - Ven Conmigo (Latin Dance)
TTITLE19=Yve V - Entre Ty y Yo (Sugar's Dance Mix)
EXTD=YEAR: 2000
EXTT0=
EXTT1=
EXTT2=
EXTT3=
EXTT4=
EXTT5=
EXTT6=
EXTT7=
EXTT8=
EXTT9=
EXTT10=
EXTT11=
EXTT12=
EXTT13=
EXTT14=
EXTT15=
EXTT16=
EXTT17=
EXTT18=
EXTT19=
PLAYORDER=
